<?xml version="1.0" encoding="utf-8" ?><svg xmlns="http://www.w3.org/2000/svg" xmlns:xlink="http://www.w3.org/1999/xlink" width="47" height="69" viewBox="0 0 47 69"><path fill="#000100" d="M4.76232 33.5028C2.93475 30.3017 8.03889 23.8185 10.4882 21.9044C11.1124 21.4166 13.3155 21.096 13.8016 20.4067C12.8707 17.4085 10.7062 11.9819 18.2807 13.009C19.5769 13.1848 19.9774 17.4237 20.0735 18.7718C26.2171 18.2771 26.2763 19.9895 31.9555 21.1076C32.5995 21.3799 33.3295 21.7491 33.8591 22.1952C34.1635 22.4496 34.5182 22.8576 34.5611 23.2816C34.7324 24.9723 32.9247 25.4991 32.1487 26.2337C30.0026 28.2649 30.2235 34.2495 30.3235 36.9461C30.4374 40.016 31.3157 42.4932 33.4379 44.5436C36.0621 47.2309 40.7413 45.2941 41.0185 48.7596C41.1928 50.939 39.1502 53.7849 37.8064 55.4501C35.9412 57.7613 29.7573 60.6492 26.9209 61.168C25.93 61.3492 22.575 60.5882 21.3439 60.485C17.8876 60.1955 14.9954 60.6397 12.0751 58.2639C11.6366 57.9071 11.4881 57.4644 11.3877 56.9175C11.6432 54.4172 13.2078 54.7595 14.0177 53.724C15.7728 51.4802 15.5418 44.2928 15.5294 41.7322L15.4153 41.0618C13.7106 37.5223 11.7005 35.0276 8.28984 33.1591C7.22272 32.8373 6.45518 33.8912 4.76232 33.5028Z"/><path fill="#F5DAA3" d="M26.7054 28.5683C27.1956 28.114 27.3357 27.9641 28.0038 27.853L27.6873 27.813C28.0826 27.7701 28.006 27.84 28.2188 27.5778L28.2278 28.0324C28.728 28.4277 28.9178 28.6172 29.6233 28.4073C28.9175 34.4727 28.4908 39.4236 32.0342 44.6869C32.5025 45.2541 32.8251 45.6383 33.377 46.1373C34.3735 47.0384 36.1902 47.2574 36.2345 48.664C35.2722 49.9689 31.9992 50.2954 30.5351 49.8752C29.7277 49.5486 29.605 49.3285 28.9181 49.5184C29.0467 50.323 29.3869 50.524 30.0563 51.1672C29.5747 51.6883 29.3981 51.9197 28.7336 52.1826L28.1813 51.3162C26.4489 50.9225 25.9374 55.1985 19.8782 51.5347C18.3294 54.6184 17.8854 54.7156 14.4893 55.055C14.7524 54.5968 14.9952 54.1273 15.217 53.6477C16.1942 51.4971 18.2535 42.9717 15.5294 41.7322L15.4153 41.0618C13.7106 37.5223 11.7005 35.0276 8.28984 33.1591C7.22272 32.8373 6.45518 33.8912 4.76232 33.5028C7.35666 33.3424 8.84147 31.4557 11.3107 31.1046C11.8785 31.0239 13.3454 31.9863 13.7492 31.0486C14.6397 28.9811 16.122 29.7536 18.5919 30.4952C20.7801 29.0504 21.796 28.1053 24.2953 27.2311C25.0614 27.6509 25.9714 28.1187 26.7054 28.5683Z"/><path fill="#000100" d="M8.28984 33.1591C9.60148 32.9678 10.3103 32.8453 11.451 33.7181C13.3063 35.1376 15.8727 38.6818 15.4153 41.0618C13.7106 37.5223 11.7005 35.0276 8.28984 33.1591Z"/><path fill="#724C35" d="M17.8043 39.347C20.3471 39.4534 20.6253 40.9788 20.5585 43.0843L19.6941 42.8595C18.5446 41.857 18.2771 40.7629 17.8043 39.347Z"/><path fill="#392B1D" d="M25.6933 36.3904L26.2613 36.749C26.9865 37.9785 27.0959 38.9701 27.1082 40.3872C26.865 40.3316 26.4936 40.107 26.2617 39.9793C25.6251 38.8641 25.3629 37.653 25.6933 36.3904Z"/><path fill="#724C35" d="M22.3996 39.1015L23.2442 39.2484C24.2935 40.0182 24.3357 41.0811 24.5513 42.3336L23.7223 42.0957C22.9977 41.3637 22.7134 40.1048 22.3996 39.1015Z"/><path fill="#C8410D" d="M30.0563 51.1672C35.3039 52.6068 36.836 48.0982 39.3422 47.9217C40.7106 48.9843 38.0343 53.6104 37.1989 54.684C35.8965 56.3577 34.2153 57.354 32.0953 57.5393C29.5003 57.9266 29.3003 57.0477 27.7909 56.9933C27.701 57.1988 25.397 59.5999 25.071 59.9493C21.3107 59.8972 14.5916 60.2892 12.2549 56.6326L12.3841 56.1998C15.3608 54.6545 16.9118 57.338 20.3852 53.1539C22.2954 54.0339 23.8857 54.6637 25.9551 54.1789C27.0608 53.4755 27.7463 53.0482 28.7336 52.1826C29.3981 51.9197 29.5747 51.6883 30.0563 51.1672Z"/><path fill="#C8410D" d="M11.739 22.8576C12.2983 22.6145 13.8417 21.9205 14.3849 21.924C15.9466 21.934 17.6113 23.4903 19.0198 22.1297C19.3256 21.0187 19.2154 20.6715 19.9969 20.0229C22.7838 19.8272 32.0038 21.0499 33.0379 23.6313C32.9632 23.9799 32.9718 24.2717 32.6017 24.4094C30.2284 25.2926 28.8908 25.5507 26.671 26.7735C22.9955 25.8973 21.3959 27.3901 18.2633 29.2828C14.3381 28.5901 13.9763 29.1781 10.1987 30.1266C9.07058 30.6219 6.65933 32.0064 5.75737 31.9897C4.72884 30.9345 6.95 27.3701 7.78253 26.4431C8.8542 24.8658 9.89933 23.3579 11.739 22.8576Z"/><path fill="#C8410D" d="M10.1987 30.1266C9.07058 30.6219 6.65933 32.0064 5.75737 31.9897C4.72884 30.9345 6.95 27.3701 7.78253 26.4431L8.49171 26.7938C8.18239 27.6827 7.92662 28.2881 7.92838 29.2466C8.75676 30.1871 9.05907 29.5401 10.1987 30.1266Z"/><path fill="#F5DAA3" d="M7.78253 26.4431C8.8542 24.8658 9.89933 23.3579 11.739 22.8576C11.6635 25.0324 10.183 25.5755 8.49171 26.7938L7.78253 26.4431Z"/><path fill="#6C7A0F" d="M16.5497 14.0045C16.6697 13.9964 16.79 13.994 16.9103 13.9973C19.141 14.0788 18.5621 17.2315 18.4958 18.7983C17.8319 19.3717 16.6925 20.0972 15.9394 20.6094C14.4415 19.5379 12.6335 16.4647 14.4213 14.8264C14.7574 14.5185 16.0589 14.1503 16.5497 14.0045Z"/></svg>