<?xml version="1.0" encoding="utf-8" ?><svg xmlns="http://www.w3.org/2000/svg" xmlns:xlink="http://www.w3.org/1999/xlink" width="32" height="34" viewBox="0 0 32 34"><path fill="#F4EBD8" d="M12.13 2.79135C16.8261 2.44853 21.5353 2.8619 26.158 2.71181C26.9517 2.88834 27.3237 2.97126 28.0854 3.29124L28.7867 3.87461C29.6852 8.64517 28.0247 20.3193 28.8717 25.4767C28.7053 26.1326 28.5379 26.6402 28.6213 27.3214L27.3462 28.2743C24.5066 28.7563 7.07945 28.7869 4.43247 28.057L4.42915 27.7263C4.39695 27.7066 4.36698 27.685 4.33806 27.6608C3.92667 27.3155 3.86013 26.4562 3.81685 25.9539C3.60314 23.4739 3.24425 4.81943 4.28099 3.61989C5.15367 2.61016 7.31928 2.68408 8.53011 2.58155C9.83966 2.70885 10.7988 2.7818 12.13 2.79135ZM10.1811 6.49333C11.1455 7.59996 12.3486 9.41906 13.354 10.1871C15.4006 11.0397 17.7435 11.4075 19.8571 10.539C20.0279 10.4696 20.1931 10.3868 20.3509 10.2915C20.7749 9.44669 21.5031 8.96036 22.2429 8.37318C23.8759 7.79517 25.5099 6.81468 26.9469 5.86483L26.567 4.77719C22.3349 4.67648 16.2199 4.33221 12.2149 4.98865C11.5773 5.51568 10.9104 6.1109 10.1811 6.49333Z"/><path fill="#523529" d="M26.9757 25.9592L27.8596 26.1769C28.3185 26.9794 27.8145 27.5446 27.3462 28.2743C24.5066 28.7563 7.07945 28.7869 4.43247 28.057L4.42915 27.7263C5.20651 27.6965 6.0473 27.7436 6.68916 27.3119L6.57298 26.9212L5.77409 26.5643C12.196 27.0031 19.4249 26.3626 25.9436 26.6071C26.5496 26.6299 26.6631 26.3775 26.9757 25.9592Z"/><path fill="#4D3C2E" d="M28.0854 3.29124L28.7867 3.87461C29.6852 8.64517 28.0247 20.3193 28.8717 25.4767C28.7053 26.1326 28.5379 26.6402 28.6213 27.3214L27.3462 28.2743C27.8145 27.5446 28.3185 26.9794 27.8596 26.1769L26.9757 25.9592C26.5385 20.148 27.2851 12.0548 26.9469 5.86483L26.567 4.77719L26.8381 4.64925C27.6629 4.76556 27.853 3.8663 28.0854 3.29124Z"/><path fill="#523529" d="M22.2429 8.37318C23.0402 8.55376 23.5407 8.60989 24.1376 9.1876L24.2504 9.63553C23.0428 11.0319 18.3409 15.9313 16.8048 16.4321C15.6622 16.2311 14.553 14.36 13.58 13.9121L13.5602 13.3873C13.9945 13.1696 14.3173 12.9743 14.7289 12.7166L13.7784 11.5793L13.82 11.4918L13.354 10.1871C15.4006 11.0397 17.7435 11.4075 19.8571 10.539C20.0279 10.4696 20.1931 10.3868 20.3509 10.2915C20.7749 9.44669 21.5031 8.96036 22.2429 8.37318Z"/><path fill="#F4EBD8" d="M20.3509 10.2915C19.8691 11.7272 17.9537 13.9632 16.9515 15.1285C16.3333 14.3657 15.5104 13.2513 14.7289 12.7166L13.7784 11.5793L13.82 11.4918L13.354 10.1871C15.4006 11.0397 17.7435 11.4075 19.8571 10.539C20.0279 10.4696 20.1931 10.3868 20.3509 10.2915Z"/><defs><linearGradient id="gradient_0" gradientUnits="userSpaceOnUse" x1="3.99807" y1="15.375301" x2="5.2460966" y2="15.374872"><stop offset="0" stop-color="#000100"/><stop offset="1" stop-color="#211"/></linearGradient></defs><path fill="url(#gradient_0)" d="M8.53011 2.58155C9.83966 2.70885 10.7988 2.7818 12.13 2.79135C10.5792 2.92497 7.02255 3.10814 5.74808 3.55562L5.54085 3.83616L6.69597 4.20303C5.85541 4.42072 5.56389 4.34159 5.06414 4.9057C4.75184 6.7149 4.77725 25.1317 5.25285 26.2878L5.77409 26.5643L6.57298 26.9212L6.68916 27.3119C6.0473 27.7436 5.20651 27.6965 4.42915 27.7263C4.39695 27.7066 4.36698 27.685 4.33806 27.6608C3.92667 27.3155 3.86013 26.4562 3.81685 25.9539C3.60314 23.4739 3.24425 4.81943 4.28099 3.61989C5.15367 2.61016 7.31928 2.68408 8.53011 2.58155Z"/><path fill="#160E0A" d="M12.13 2.79135C16.8261 2.44853 21.5353 2.8619 26.158 2.71181C26.9517 2.88834 27.3237 2.97126 28.0854 3.29124C27.853 3.8663 27.6629 4.76556 26.8381 4.64925C25.4981 4.34435 21.9629 4.40257 20.4646 4.36934C15.9524 4.26926 11.2013 4.45996 6.69597 4.20303L5.54085 3.83616L5.74808 3.55562C7.02255 3.10814 10.5792 2.92497 12.13 2.79135Z"/><path fill="#4D3C2E" d="M13.7784 11.5793L14.7289 12.7166C14.3173 12.9743 13.9945 13.1696 13.5602 13.3873L13.58 13.9121C13.164 15.3284 8.36581 21.1996 7.18238 21.5314L6.89794 21.2613C6.87895 21.0674 6.88681 20.9031 6.91225 20.7101C6.98894 20.1081 7.20587 19.5325 7.54559 19.0296C7.56015 19.0078 14.0398 11.3795 13.7784 11.5793Z"/><path fill="#523529" d="M21.708 14.7849C22.0877 14.8776 22.6172 15.1502 22.7291 15.516C23.2107 17.0888 23.3812 22.6583 22.78 24.0076C22.2296 23.8431 21.876 23.7874 21.5308 23.33C20.7693 21.4907 21.1564 16.6694 21.708 14.7849Z"/><path fill="#523529" d="M16.6537 18.7966L17.601 19.0729C17.7427 19.2177 17.8628 19.3822 17.9576 19.5613C18.5158 20.609 18.3353 22.7304 17.9964 23.8434C17.396 23.7708 17.0902 23.7777 16.6737 23.3437C15.9445 21.8798 16.3872 20.414 16.6537 18.7966Z"/><path fill="#523529" d="M11.8958 19.0548C14.3019 19.6965 13.5982 21.7309 13.4597 23.9182C12.3213 23.7467 12.4264 23.9478 11.7777 23.2153C11.3547 22.1481 11.742 20.2601 11.8958 19.0548Z"/></svg>