<?xml version="1.0" encoding="utf-8" ?><svg xmlns="http://www.w3.org/2000/svg" xmlns:xlink="http://www.w3.org/1999/xlink" width="70" height="67" viewBox="0 0 70 67"><path fill="#67451B" d="M21.9832 37.7606C24.6028 35.9488 25.5626 35.2064 28.4941 36.9312L28.5404 37.2549L29.4605 38.0441C29.4899 38.9561 29.3572 39.4257 29.7818 40.1295C30.3059 40.1591 30.4816 39.9729 30.8998 39.6554C31.1167 38.8156 31.2253 37.9853 31.3533 37.1285C33.8668 36.5685 36.2346 36.2319 38.1765 38.1831C38.7331 38.8691 39.7267 40.1803 40.3805 40.6728C44.5185 39.6224 45.7556 41.2381 47.5277 44.7598C52.2616 43.1162 52.8597 44.4424 54.851 48.5651C62.3933 48.7479 60.1866 53.209 56.605 57.1655C55.0559 57.5964 51.8327 57.5526 51.3292 57.815C45.6268 60.7863 46.7342 62.1762 40.017 59.2665C37.6832 60.6935 34.9902 62.5104 32.1298 62.2786C31.1199 62.1925 30.4193 61.6601 29.3685 61.7786C24.2837 62.352 21.1193 63.0921 17.9428 58.2737C16.4218 58.6235 11.9368 59.9287 10.9396 59.407C7.98004 57.8585 0.532062 56.9326 2.7418 51.9547C3.90244 49.3401 7.07407 48.3315 9.2839 47.5714C9.96915 43.0494 11.9593 42.6227 16.0276 42.0076C17.1386 38.1733 18.1949 37.7667 21.9832 37.7606Z"/><path fill="#472E14" d="M38.1765 38.1831C38.7331 38.8691 39.7267 40.1803 40.3805 40.6728C40.9081 40.7201 41.4438 40.7335 41.9145 40.9769C42.7918 42.8529 41.5671 44.2542 40.362 45.6894C38.9376 42.6144 38.7087 41.5635 38.1765 38.1831Z"/><path fill="#4F3E14" d="M28.5404 37.2549L29.4605 38.0441C29.4899 38.9561 29.3572 39.4257 29.7818 40.1295C30.3059 40.1591 30.4816 39.9729 30.8998 39.6554C31.7174 40.7225 31.5925 42.3274 30.6294 43.2676C28.7789 43.1312 28.6826 38.8031 28.5404 37.2549Z"/><path fill="#472E14" d="M35.5029 44.924C36.8586 44.8647 38.3709 45.5901 39.0897 46.7886C39.5977 47.6357 39.3087 48.0898 39.0783 48.9615C38.9057 48.9533 38.7343 48.9293 38.5661 48.8897C37.7087 48.6932 36.1422 47.1716 35.6238 46.4176C35.1826 45.776 35.3461 45.6077 35.5029 44.924Z"/><path fill="#472E14" d="M28.8253 54.9934C29.092 54.9927 29.414 55.1262 29.6729 55.2155L29.7179 55.7459C28.856 57.2137 27.0189 57.3182 25.5449 56.9288C25.5147 56.9103 25.4847 56.8913 25.4551 56.8717C24.8104 56.4548 24.5333 56.2845 24.3976 55.6458C25.3393 55.1058 26.8217 55.9663 28.8253 54.9934Z"/><path fill="#472E14" d="M19.3513 50.2576C19.428 50.2831 19.7423 50.5468 19.8291 50.6161L19.7043 51.1037C18.9492 51.8865 18.3239 52.1117 17.335 52.5649C16.9254 52.2441 17.0495 52.3838 16.8484 51.8869C17.2027 51.1862 18.6206 50.6202 19.3513 50.2576Z"/><path fill="#472E14" d="M42.6748 53.2129C43.1067 52.9074 43.7001 52.9807 44.0447 53.382C44.3893 53.7833 44.3721 54.3809 44.0049 54.7617C43.7346 55.042 43.3289 55.145 42.9577 55.0276C42.5864 54.9102 42.3137 54.5926 42.2538 54.2079C42.1938 53.8232 42.3569 53.4377 42.6748 53.2129Z"/><path fill="#020B00" d="M29.3208 25.6832C28.3996 25.3823 27.5549 25.5527 26.6162 25.5976C19.5197 25.9373 14.4115 20.1766 13.2772 13.5786C13.1347 12.7495 13.1755 12.198 13.7098 11.4848C16.9181 9.20868 25.2729 12.383 27.4532 15.2051C29.3458 17.6547 31.079 20.2295 30.9409 23.4592C29.3902 24.7951 30.2716 25.5593 29.3208 25.6832Z"/><path fill="#A0A729" d="M14.7151 11.9394C20.4271 13.5931 26.6714 11.857 29.0443 20.0559C29.3187 21.004 30.0493 22.9798 28.7533 23.368C27.6293 22.6363 26.0934 20.1835 25.0296 19.2523C23.6973 18.0861 21.8294 16.8253 20.364 15.7946C20.0095 15.7077 20.1447 15.6988 19.7896 15.8978C20.1057 16.6929 22.2252 17.971 23.0038 18.6205C24.9502 20.244 26.6067 22.3371 28.2479 24.2725C19.1728 24.3614 15.2815 20.8136 14.7151 11.9394Z"/><path fill="#020B00" d="M34.9385 19.4854C37.1862 16.9893 50.5505 11.5177 50.9503 16.7035C51.2848 21.0427 43.6334 29.2649 39.03 28.2462C37.2505 28.2306 33.6685 27.7211 32.4191 28.1936L31.9302 27.8967C31.3659 26.0104 34.0922 21.4123 34.9385 19.4854Z"/><path fill="#A0A729" d="M35.2531 21.6722C39.1464 15.8113 43.8345 16.4742 50.1217 15.944C48.64 20.0171 47.5799 23.7144 43.3135 25.7254C40.7432 26.937 36.1402 27.6767 33.4364 26.7084L33.2924 26.3437C33.3989 26.1018 33.5315 25.8003 33.6904 25.4392C35.9776 24.097 41.0628 21.6859 42.7543 19.8452L42.6839 19.6011C41.6479 19.624 41.558 19.8743 40.568 20.4441C40.0186 20.935 34.3536 24.3244 33.4078 24.8966C33.8636 23.999 34.6154 22.3634 35.2531 21.6722Z"/><path fill="#AFAE3D" d="M35.2531 21.6722C37.6825 21.8292 37.8774 21.3939 40.2059 20.2498L40.568 20.4441C40.0186 20.935 34.3536 24.3244 33.4078 24.8966C33.8636 23.999 34.6154 22.3634 35.2531 21.6722Z"/><path fill="#4C6C22" d="M30.9409 23.4592C31.1202 23.6745 31.1864 23.6739 31.4626 23.7315C32.8541 22.1379 32.0119 21.8765 34.9385 19.4854C34.0922 21.4123 31.3659 26.0104 31.9302 27.8967L32.4191 28.1936C32.4141 29.3597 30.084 35.6943 30.9671 37.1881C30.4842 37.4201 29.8438 37.6892 29.4605 38.0441L28.5404 37.2549L28.4941 36.9312C29.7685 36.1636 29.0053 27.5042 29.3208 25.6832C30.2716 25.5593 29.3902 24.7951 30.9409 23.4592Z"/><path fill="#5F6A24" fill-opacity="0.98823529" d="M31.3533 37.1285C31.2253 37.9853 31.1167 38.8156 30.8998 39.6554C30.4816 39.9729 30.3059 40.1591 29.7818 40.1295C29.3572 39.4257 29.4899 38.9561 29.4605 38.0441C29.8438 37.6892 30.4842 37.4201 30.9671 37.1881L31.3533 37.1285Z"/></svg>