<?xml version="1.0" encoding="utf-8" ?><svg xmlns="http://www.w3.org/2000/svg" xmlns:xlink="http://www.w3.org/1999/xlink" width="106" height="110" viewBox="0 0 106 110"><path fill="#89A724" d="M47.9031 6.22506C50.0545 5.72017 59.8869 5.74604 61.787 6.38085C62.9839 6.52205 63.8346 6.56159 65.0299 6.59149C66.1777 6.68124 68.1323 6.71284 69.0312 7.26444C70.3738 7.85092 71.8268 8.37033 73.1295 8.9759L73.2575 8.96114C74.4438 8.99549 75.9639 10.4613 76.3781 11.4791C77.1143 12.2912 80.9039 18.0998 81.3241 19.0536C83.1056 21.5358 84.6797 19.4537 87.7047 19.69C88.5094 19.5867 88.7329 19.5341 89.436 19.9478C90.9982 22.5875 85.7438 30.784 84.6844 33.818C84.0979 35.1924 82.7702 39.0969 81.2312 38.9817C77.2046 38.6802 62.4264 37.1527 59.7741 35.0049L59.8051 34.5872C60.8473 33.6347 63.1631 32.7104 64.5294 32.067C65.5153 31.3638 65.5343 31.577 65.9158 30.609C65.772 29.5259 64.3892 28.0775 63.6223 27.076C62.8688 26.053 60.7267 22.1374 59.9011 20.7792L59.4351 20.1749C58.0463 20.3856 56.3241 23.8443 55.6335 25.0535C54.9386 25.1721 54.2913 25.2039 53.5898 25.2491C53.9933 24.0472 53.9129 23.7936 53.4859 22.6111C51.3549 23.5542 50.0699 27.8455 49.5413 29.9464C49.4122 30.4596 47.1401 32.2476 46.7424 33.3597C47.122 33.9156 47.1236 33.7915 47.8278 34.0458C48.4824 33.5608 48.7587 33.3538 49.3082 32.7536C49.5568 32.924 49.6685 33.21 49.8155 33.4852C49.5852 36.127 47.1769 37.4632 44.7831 36.0788C40.9935 33.8873 33.8702 31.5324 30.9303 28.5198C30.7661 27.2198 34.5459 22.6952 35.6207 21.2885C36.3275 19.938 36.6174 19.3584 37.5925 18.1818L38.9455 15.763C40.3866 12.2499 42.958 8.40715 46.4177 6.61394L47.9031 6.22506ZM80.8864 31.6652C80.8872 29.6468 79.6283 29.7546 77.8935 29.4723C78.1147 30.355 78.2198 31.0909 78.894 31.7145C79.6769 32.0892 80.0822 32.0393 80.8864 31.6652Z"/><path fill="#89A724" d="M43.2945 13.5005C45.0386 14.4159 44.8616 12.9507 46.7436 14.0294C47.4955 14.4604 49.2465 15.4788 49.9887 15.3444L50.1922 15.6996C50.5685 16.1295 52.2009 20.451 53.1778 22.0201L53.4859 22.6111C51.3549 23.5542 50.0699 27.8455 49.5413 29.9464C49.4122 30.4596 47.1401 32.2476 46.7424 33.3597C47.122 33.9156 47.1236 33.7915 47.8278 34.0458C48.4824 33.5608 48.7587 33.3538 49.3082 32.7536C49.5568 32.924 49.6685 33.21 49.8155 33.4852C49.5852 36.127 47.1769 37.4632 44.7831 36.0788C40.9935 33.8873 33.8702 31.5324 30.9303 28.5198C30.7661 27.2198 34.5459 22.6952 35.6207 21.2885C36.3275 19.938 36.6174 19.3584 37.5925 18.1818L38.3912 17.8404C38.4876 17.9613 38.6292 18.0973 38.634 18.2389L39.1168 19.5441C40.5086 17.2539 42.3651 16.08 43.2945 13.5005Z"/><defs><linearGradient id="gradient_0" gradientUnits="userSpaceOnUse" x1="40.991711" y1="28.378107" x2="35.015453" y2="32.898087"><stop offset="0" stop-color="#425F16"/><stop offset="1" stop-color="#5B781D"/></linearGradient></defs><path fill="url(#gradient_0)" d="M35.6207 21.2885L36.1104 22.4191C35.1714 23.663 33.502 25.6189 33.3706 27.1316C33.7128 27.8904 33.4946 27.6625 34.2626 28.0328C34.5878 28.1427 35.3463 28.4252 35.6479 28.4477C36.5326 28.9301 37.41 29.4259 38.2797 29.9349C40.8114 31.8964 44.0614 34.1286 47.2693 34.3154L47.8278 34.0458C48.4824 33.5608 48.7587 33.3538 49.3082 32.7536C49.5568 32.924 49.6685 33.21 49.8155 33.4852C49.5852 36.127 47.1769 37.4632 44.7831 36.0788C40.9935 33.8873 33.8702 31.5324 30.9303 28.5198C30.7661 27.2198 34.5459 22.6952 35.6207 21.2885Z"/><path fill="#9FB63D" d="M37.5925 18.1818L38.3912 17.8404C38.4876 17.9613 38.6292 18.0973 38.634 18.2389L39.1168 19.5441C38.7016 21.0718 36.7733 23.4747 35.987 24.8347C35.7341 25.2721 35.1698 27.2764 34.9986 27.8603L34.2626 28.0328C33.4946 27.6625 33.7128 27.8904 33.3706 27.1316C33.502 25.6189 35.1714 23.663 36.1104 22.4191L35.6207 21.2885C36.3275 19.938 36.6174 19.3584 37.5925 18.1818Z"/><path fill="#577D1C" d="M37.5925 18.1818L38.3912 17.8404C38.4876 17.9613 38.6292 18.0973 38.634 18.2389C38.0232 19.4508 36.9553 21.3593 36.1104 22.4191L35.6207 21.2885C36.3275 19.938 36.6174 19.3584 37.5925 18.1818Z"/><path fill="#6E9318" d="M50.1922 15.6996C50.5685 16.1295 52.2009 20.451 53.1778 22.0201C51.2144 20.1864 50.6503 20.1213 48.1009 20.9347C49.0319 19.9053 49.5325 19.1778 50.2085 17.9801C50.1293 17.4059 50.1799 16.3222 50.1922 15.6996Z"/><path fill="#C8D191" d="M35.6479 28.4477C36.1189 27.7683 36.3039 27.4017 37.0666 27.0806C38.4874 27.258 38.8508 28.2511 38.6808 29.5879L38.2797 29.9349C37.41 29.4259 36.5326 28.9301 35.6479 28.4477Z"/><path fill="#B1C366" d="M48.1009 20.9347L47.7061 20.5723C47.3481 19.1568 48.7065 17.3548 50.2085 17.9801C49.5325 19.1778 49.0319 19.9053 48.1009 20.9347Z"/><path fill="#9FB63D" d="M44.6356 20.4946L44.8029 20.6028C45.5237 21.9604 44.2473 22.7698 43.2323 23.5578C42.7994 22.6469 42.8766 22.9936 42.9377 21.9837C43.3928 21.1421 43.7985 20.9738 44.6356 20.4946Z"/><path fill="#577D1C" d="M46.4177 6.61394L47.9031 6.22506C52.5105 6.53195 49.9103 6.9786 52.5273 8.08316C53.4467 7.15866 54.0118 7.7232 55.1587 8.2685C56.3625 10.026 59.2627 14.1409 60.085 15.9251L59.5151 16.6C60.2152 17.7568 60.8114 18.7316 61.4026 19.9508C61.8161 20.5456 62.6695 21.8517 63.1017 22.3507C63.2448 22.7223 63.5896 23.732 63.83 23.9695L64.5222 25.2882C64.1591 25.8638 63.7506 26.4128 63.6223 27.076C62.8688 26.053 60.7267 22.1374 59.9011 20.7792L59.4351 20.1749C58.0463 20.3856 56.3241 23.8443 55.6335 25.0535C54.9386 25.1721 54.2913 25.2039 53.5898 25.2491C53.9933 24.0472 53.9129 23.7936 53.4859 22.6111L53.1778 22.0201C52.2009 20.451 50.5685 16.1295 50.1922 15.6996L49.9887 15.3444C49.2465 15.4788 47.4955 14.4604 46.7436 14.0294C44.8616 12.9507 45.0386 14.4159 43.2945 13.5005C42.3651 16.08 40.5086 17.2539 39.1168 19.5441L38.634 18.2389C38.6292 18.0973 38.4876 17.9613 38.3912 17.8404L37.5925 18.1818L38.9455 15.763C40.3866 12.2499 42.958 8.40715 46.4177 6.61394Z"/><path fill="#C8D191" d="M43.2107 11.2644C44.1634 12.188 43.9291 12.2935 43.2945 13.5005C42.3651 16.08 40.5086 17.2539 39.1168 19.5441L38.634 18.2389C38.6292 18.0973 38.4876 17.9613 38.3912 17.8404L37.5925 18.1818L38.9455 15.763C39.1045 16.0722 39.0684 15.9823 39.4847 16.1338C40.9926 15.1914 42.2446 12.8338 43.2107 11.2644Z"/><path fill="#9FB63D" d="M52.5273 8.08316C53.4467 7.15866 54.0118 7.7232 55.1587 8.2685C56.3625 10.026 59.2627 14.1409 60.085 15.9251L59.5151 16.6C57.4995 13.7279 55.3115 9.99355 52.5273 8.08316Z"/><path fill="#6E9318" d="M43.2107 11.2644C43.6505 10.6779 43.7655 10.5105 44.3782 10.0818C45.4102 10.6785 45.0963 11.9909 45.8982 12.8654C46.7926 13.8407 49.2825 14.2573 49.9887 15.3444C49.2465 15.4788 47.4955 14.4604 46.7436 14.0294C44.8616 12.9507 45.0386 14.4159 43.2945 13.5005C43.9291 12.2935 44.1634 12.188 43.2107 11.2644Z"/><path fill="#405A20" d="M59.9011 20.7792C60.019 20.7258 60.3226 20.6883 60.467 20.6645C61.5339 21.8988 61.8618 23.5699 62.6 24.1789C63.1339 21.6483 61.6248 22.2067 61.4081 20.0125L61.4026 19.9508C61.8161 20.5456 62.6695 21.8517 63.1017 22.3507C63.2448 22.7223 63.5896 23.732 63.83 23.9695L64.5222 25.2882C64.1591 25.8638 63.7506 26.4128 63.6223 27.076C62.8688 26.053 60.7267 22.1374 59.9011 20.7792Z"/><path fill="#89A724" d="M49.7013 8.79971C50.814 9.27501 52.3025 9.94093 53.0389 10.9674L52.8422 11.2183C50.7415 11.0339 50.8307 10.374 49.2767 9.74986L49.7013 8.79971Z"/><path fill="#9FB63D" d="M49.2767 9.74986C48.2227 9.8347 47.5873 9.96718 46.8154 9.32403C47.2832 8.09267 48.7386 8.45146 49.7013 8.79971L49.2767 9.74986Z"/><path fill="#43691C" d="M64.5294 32.067C65.4903 31.9937 65.9619 31.7064 66.7284 31.1123L67.5589 31.6112L68.2537 31.2269L68.6843 31.8555L69.0599 32.2032L68.7926 32.7783C67.4699 32.5115 63.996 34.0899 62.773 34.7832L65.3779 35.2666C67.9012 35.901 79.1954 37.6478 81.311 37.2321C82.4604 36.6869 83.8164 32.4551 84.4533 30.9717C84.6153 32.0723 84.6646 32.7055 84.6844 33.818C84.0979 35.1924 82.7702 39.0969 81.2312 38.9817C77.2046 38.6802 62.4264 37.1527 59.7741 35.0049L59.8051 34.5872C60.8473 33.6347 63.1631 32.7104 64.5294 32.067Z"/><path fill="#43691C" d="M83.3674 23.0687C82.6191 22.0333 81.443 20.3412 81.3241 19.0536C83.1056 21.5358 84.6797 19.4537 87.7047 19.69C88.5094 19.5867 88.7329 19.5341 89.436 19.9478C90.9982 22.5875 85.7438 30.784 84.6844 33.818C84.6646 32.7055 84.6153 32.0723 84.4533 30.9717C85.0403 29.0474 87.6542 23.122 87.4981 22.2466C85.9652 22.1466 84.3644 23.8954 82.9893 24.785L82.7662 24.4724C83.7164 23.8771 82.6869 24.122 83.3674 23.0687Z"/><path fill="#DDDCC3" d="M83.3674 23.0687C82.6191 22.0333 81.443 20.3412 81.3241 19.0536C83.1056 21.5358 84.6797 19.4537 87.7047 19.69L87.7366 19.952C86.274 20.9696 84.78 21.9862 83.3674 23.0687Z"/><path fill="#4E6F26" d="M47.9031 6.22506C50.0545 5.72017 59.8869 5.74604 61.787 6.38085C62.9839 6.52205 63.8346 6.56159 65.0299 6.59149C66.1777 6.68124 68.1323 6.71284 69.0312 7.26444C68.0534 8.01782 67.952 8.11523 66.5635 7.93672C66.4588 7.92328 66.3543 7.90868 66.25 7.89293C65.6162 7.82955 64.3939 7.84051 63.7113 7.82418C61.8756 7.79433 56.6395 7.60813 55.1587 8.2685C54.0118 7.7232 53.4467 7.15866 52.5273 8.08316C49.9103 6.9786 52.5105 6.53195 47.9031 6.22506Z"/><path fill="#405A20" d="M65.0299 6.59149C66.1777 6.68124 68.1323 6.71284 69.0312 7.26444C68.0534 8.01782 67.952 8.11523 66.5635 7.93672C66.4588 7.92328 66.3543 7.90868 66.25 7.89293C65.6162 7.82955 64.3939 7.84051 63.7113 7.82418C63.1619 7.6198 62.9281 7.5678 62.5565 7.10115C62.9649 6.73162 64.3544 6.67868 65.0299 6.59149Z"/><path fill="#9FB63D" d="M63.83 23.9695C64.1854 23.901 64.4169 23.7569 64.7176 23.9919C66.0624 25.0432 69.9323 29.7339 69.8173 31.2998C69.2801 31.8305 69.4875 31.674 68.6843 31.8555L68.2537 31.2269L67.5589 31.6112L66.7284 31.1123C65.9619 31.7064 65.4903 31.9937 64.5294 32.067C65.5153 31.3638 65.5343 31.577 65.9158 30.609C65.772 29.5259 64.3892 28.0775 63.6223 27.076C63.7506 26.4128 64.1591 25.8638 64.5222 25.2882L63.83 23.9695Z"/><path fill="#405A20" d="M64.5222 25.2882C65.4789 26.8562 67.4992 29.7795 68.2537 31.2269L67.5589 31.6112L66.7284 31.1123C65.9619 31.7064 65.4903 31.9937 64.5294 32.067C65.5153 31.3638 65.5343 31.577 65.9158 30.609C65.772 29.5259 64.3892 28.0775 63.6223 27.076C63.7506 26.4128 64.1591 25.8638 64.5222 25.2882Z"/><path fill="#405A20" d="M76.3781 11.4791C77.1143 12.2912 80.9039 18.0998 81.3241 19.0536C81.443 20.3412 82.6191 22.0333 83.3674 23.0687C82.6869 24.122 83.7164 23.8771 82.7662 24.4724C81.3298 22.7209 77.8164 17.2895 76.9537 15.2167C77.0355 14.7811 76.4307 12.7066 76.3781 11.4791Z"/><path fill="#9FB63D" d="M71.9757 32.1402C72.1737 32.982 71.9975 32.7359 72.6209 33.2051L74.0845 33.4195C71.3703 34.0147 67.9945 35.1489 65.3779 35.2666L62.773 34.7832C63.996 34.0899 67.4699 32.5115 68.7926 32.7783C69.8649 32.8262 70.971 32.4686 71.9757 32.1402Z"/><path fill="#B1C366" d="M69.0312 7.26444C70.3738 7.85092 71.8268 8.37033 73.1295 8.9759C73.1457 9.56209 73.2447 10.1446 72.8724 10.5781C71.8578 10.6594 71.0578 9.43672 70.3782 9.39253C68.6396 9.27945 65.564 9.91468 64.263 8.32998C64.6535 7.95146 65.6036 7.96758 66.25 7.89293C66.3543 7.90868 66.4588 7.92328 66.5635 7.93672C67.952 8.11523 68.0534 8.01782 69.0312 7.26444Z"/><path fill="#2B3D1B" d="M73.2575 8.96114C74.4438 8.99549 75.9639 10.4613 76.3781 11.4791C76.4307 12.7066 77.0355 14.7811 76.9537 15.2167C75.9898 13.846 73.1017 10.2981 73.2575 8.96114Z"/><path fill="#9FB63D" d="M60.085 15.9251C60.9255 17.0901 63.826 20.5697 63.6404 21.8379L63.1017 22.3507C62.6695 21.8517 61.8161 20.5456 61.4026 19.9508C60.8114 18.7316 60.2152 17.7568 59.5151 16.6L60.085 15.9251Z"/><path fill="#B1C366" d="M71.9757 32.1402C72.99 31.6219 72.9642 31.4324 73.9815 31.5284C74.6786 32.0792 74.49 31.8298 74.7044 32.737L74.5275 33.2835L74.0845 33.4195L72.6209 33.2051C71.9975 32.7359 72.1737 32.982 71.9757 32.1402Z"/><path fill="#9FB63D" d="M62.2205 15.6524C63.8511 16.0275 66.8413 18.4064 67.1286 20.1618C65.4659 19.4195 62.3384 17.6297 62.2205 15.6524Z"/><path fill="#9FB63D" fill-opacity="0.98823529" d="M77.8935 29.4723C79.6283 29.7546 80.8872 29.6468 80.8864 31.6652C80.0822 32.0393 79.6769 32.0892 78.894 31.7145C78.2198 31.0909 78.1147 30.355 77.8935 29.4723Z"/><path fill="#9FB63D" fill-opacity="0.98431373" d="M47.8278 34.0458C47.1236 33.7915 47.122 33.9156 46.7424 33.3597C47.1401 32.2476 49.4122 30.4596 49.5413 29.9464C50.0699 27.8455 51.3549 23.5542 53.4859 22.6111C53.9129 23.7936 53.9933 24.0472 53.5898 25.2491C52.8591 26.3584 52.2882 27.2416 51.655 28.4128C51.7818 28.8626 51.6739 28.7143 52.0583 28.973C50.8234 29.8776 48.4109 31.0782 49.3082 32.7536C48.7587 33.3538 48.4824 33.5608 47.8278 34.0458Z"/><path fill="#4E6F26" d="M53.5898 25.2491C54.2913 25.2039 54.9386 25.1721 55.6335 25.0535C54.588 26.4592 53.5021 27.942 52.0583 28.973C51.6739 28.7143 51.7818 28.8626 51.655 28.4128C52.2882 27.2416 52.8591 26.3584 53.5898 25.2491Z"/><path fill="#89A724" d="M32.9976 37.0003C34.469 37.0621 35.8283 37.124 37.2939 37.2689C39.4405 40.4051 40.1241 43.7368 42.1899 47.4114C43.1633 49.1976 45.8944 53.9543 45.6167 55.7095C44.1392 57.7059 39.8752 54.8436 38.0432 54.0583C37.1431 54.788 36.422 55.5857 35.2532 55.7274C34.532 55.54 34.6796 55.4588 34.0845 55.7106C33.2034 56.742 32.4714 57.766 32.2012 59.1158L32.4647 59.7813C33.3064 60.026 33.1423 59.8408 33.5253 60.4807C33.5327 61.6828 32.379 62.8287 31.5844 63.7283C32.7437 66.1061 38.6644 65.5981 40.9622 65.5882C44.63 65.5996 46.5821 65.8091 50.3284 65.438C55.4716 65.6575 54.1114 67.8731 54.4544 72.3563C53.4438 75.432 54.0225 83.3864 53.2133 84.9087C50.1079 85.2738 47.4338 85.2026 44.3326 85.1351L40.5165 84.8297C38.5268 84.5001 36.9035 84.6159 34.9047 84.6979C33.869 84.8069 32.5206 84.9879 31.504 85.0022C30.6511 85.037 29.7968 85.0022 28.9496 84.8982C27.761 84.7408 25.9366 84.2106 25.1964 83.242C23.1157 81.8492 22.4447 79.9871 21.5409 77.7346C18.6749 72.9037 15.1317 70.1305 11.8477 64.7835C11.9423 63.5133 12.0294 60.2867 12.6446 58.8218C14.4818 54.4471 19.7402 48.2001 20.3146 43.6587C20.3895 43.0663 17.7316 41.8795 16.7612 41.2766C16.0925 40.6373 15.8101 40.3698 16.2164 39.4773C16.9366 38.8648 17.591 38.7857 18.501 38.5877C20.8087 38.4113 23.1937 37.848 25.445 37.6431C28.0082 37.4098 30.4146 37.2818 32.9976 37.0003ZM30.09 63.9734C29.1852 65.2156 28.457 66.2963 27.6338 67.5944C26.9435 69.1249 25.9766 71.1905 24.9537 72.5455C24.2023 74.0682 22.3906 77.8792 22.9794 79.5203C23.7382 81.5111 23.8955 81.5021 25.1964 83.242C25.9366 84.2106 27.761 84.7408 28.9496 84.8982C29.7968 85.0022 30.6511 85.037 31.504 85.0022C32.5206 84.9879 33.869 84.8069 34.9047 84.6979C36.9035 84.6159 38.5268 84.5001 40.5165 84.8297L44.3326 85.1351C47.4338 85.2026 50.1079 85.2738 53.2133 84.9087C54.0225 83.3864 53.4438 75.432 54.4544 72.3563C54.1114 67.8731 55.4716 65.6575 50.3284 65.438C46.5821 65.8091 44.63 65.5996 40.9622 65.5882C38.6644 65.5981 32.7437 66.1061 31.5844 63.7283C31.1973 64.1956 30.8242 64.6745 30.4658 65.1642L30.09 63.9734Z"/><defs><linearGradient id="gradient_1" gradientUnits="userSpaceOnUse" x1="22.936905" y1="77.516846" x2="51.686073" y2="70.217522"><stop offset="0" stop-color="#3B7106"/><stop offset="1" stop-color="#84A71B"/></linearGradient></defs><path fill="url(#gradient_1)" d="M30.4658 65.1642C30.8242 64.6745 31.1973 64.1956 31.5844 63.7283C32.7437 66.1061 38.6644 65.5981 40.9622 65.5882C44.63 65.5996 46.5821 65.8091 50.3284 65.438C55.4716 65.6575 54.1114 67.8731 54.4544 72.3563C53.4438 75.432 54.0225 83.3864 53.2133 84.9087C50.1079 85.2738 47.4338 85.2026 44.3326 85.1351L40.5165 84.8297C38.5268 84.5001 36.9035 84.6159 34.9047 84.6979C33.869 84.8069 32.5206 84.9879 31.504 85.0022C30.6511 85.037 29.7968 85.0022 28.9496 84.8982C27.761 84.7408 25.9366 84.2106 25.1964 83.242C23.8955 81.5021 23.7382 81.5111 22.9794 79.5203C22.3906 77.8792 24.2023 74.0682 24.9537 72.5455C25.9766 71.1905 26.9435 69.1249 27.6338 67.5944C28.457 66.2963 29.1852 65.2156 30.09 63.9734L30.4658 65.1642ZM45.5007 79.1039L47.141 80.1826C47.8536 80.0372 47.8855 80.1367 48.4015 79.6916L48.3109 78.592C48.2777 78.2341 48.3949 77.5999 48.4497 77.2227C48.1107 75.9751 47.1837 74.4755 45.7331 74.7669C45.1929 76.078 46.7477 76.0479 46.7545 77.9209C46.0994 78.2991 45.8227 78.4101 45.5007 79.1039ZM51.9272 78.7984C51.0517 78.734 50.4701 78.615 49.7092 79.0452L49.3085 79.5615C49.7263 80.6083 50.4432 80.4659 51.4912 80.4832C51.7741 80.0309 51.8376 79.3404 51.9272 78.7984Z"/><path fill="#9FB63D" fill-opacity="0.98823529" d="M46.7545 77.9209C46.7477 76.0479 45.1929 76.078 45.7331 74.7669C47.1837 74.4755 48.1107 75.9751 48.4497 77.2227C48.3949 77.5999 48.2777 78.2341 48.3109 78.592L48.4015 79.6916C47.8855 80.1367 47.8536 80.0372 47.141 80.1826L45.5007 79.1039C45.8227 78.4101 46.0994 78.2991 46.7545 77.9209Z"/><path fill="#9FB63D" fill-opacity="0.98823529" d="M51.4912 80.4832C50.4432 80.4659 49.7263 80.6083 49.3085 79.5615L49.7092 79.0452C50.4701 78.615 51.0517 78.734 51.9272 78.7984C51.8376 79.3404 51.7741 80.0309 51.4912 80.4832Z"/><path fill="#4E6F26" d="M50.3284 65.438C55.4716 65.6575 54.1114 67.8731 54.4544 72.3563C53.4438 75.432 54.0225 83.3864 53.2133 84.9087C50.1079 85.2738 47.4338 85.2026 44.3326 85.1351L40.5165 84.8297C38.5268 84.5001 36.9035 84.6159 34.9047 84.6979C36.3648 84.2416 39.1528 83.9023 39.8981 83.49C40.9609 83.6587 49.0163 83.3955 49.6224 83.0347L49.7074 83.0715C50.5231 83.4199 51.0301 83.8324 51.9076 83.6645L52.149 83.2789C51.9766 82.2704 51.9214 82.0782 51.3411 81.2384L51.4912 80.4832C51.7741 80.0309 51.8376 79.3404 51.9272 78.7984L51.74 77.2457C52.0756 74.9732 51.7109 73.6337 51.8441 71.4407C51.9122 71.3475 51.9515 71.2852 51.9759 71.166C52.9492 66.4227 48.2486 67.514 45.1979 67.3517C44.2608 67.3019 42.3556 67.1247 41.5941 67.7411C40.7612 67.4785 40.1989 67.3364 39.3429 67.1628L39.1091 66.6842C39.72 65.8334 40.4251 66.4216 40.9622 65.5882C44.63 65.5996 46.5821 65.8091 50.3284 65.438Z"/><path fill="#89A724" d="M45.5007 79.1039C44.5085 78.7561 43.9561 78.4045 43.697 77.37C44.1265 77.6703 44.2341 77.73 44.724 77.9119C45.6682 76.5237 44.8086 71.9777 47.4266 71.6867C48.0229 71.6205 49.0199 71.6764 49.6476 71.6872L49.89 72.0935C50.3128 71.1843 50.1635 71.1484 50.8839 70.6517C51.5608 70.8172 51.3625 70.7594 51.8441 71.4407C51.7109 73.6337 52.0756 74.9732 51.74 77.2457L51.9272 78.7984C51.0517 78.734 50.4701 78.615 49.7092 79.0452L49.3085 79.5615C49.7263 80.6083 50.4432 80.4659 51.4912 80.4832L51.3411 81.2384C51.9214 82.0782 51.9766 82.2704 52.149 83.2789L51.9076 83.6645C51.0301 83.8324 50.5231 83.4199 49.7074 83.0715L49.6224 83.0347C49.6049 82.2937 50.2581 81.7899 50.0912 80.9477C48.7002 80.828 48.416 80.763 47.141 80.1826C47.8536 80.0372 47.8855 80.1367 48.4015 79.6916L48.3109 78.592C48.2777 78.2341 48.3949 77.5999 48.4497 77.2227C48.1107 75.9751 47.1837 74.4755 45.7331 74.7669C45.1929 76.078 46.7477 76.0479 46.7545 77.9209C46.0994 78.2991 45.8227 78.4101 45.5007 79.1039Z"/><path fill="#8C9779" d="M30.4658 65.1642C30.8242 64.6745 31.1973 64.1956 31.5844 63.7283C32.7437 66.1061 38.6644 65.5981 40.9622 65.5882C40.4251 66.4216 39.72 65.8334 39.1091 66.6842L39.3429 67.1628C40.1989 67.3364 40.7612 67.4785 41.5941 67.7411C41.8616 68.2315 41.89 68.3298 41.7911 68.8783L41.3021 69.0426C38.5957 68.3858 37.1703 67.4103 34.7056 66.3665C33.9715 66.0557 31.1455 66.4447 30.2533 65.741L30.4658 65.1642Z"/><path fill="#405A20" d="M22.9794 79.5203C23.5105 79.6963 24.2463 80.005 24.775 79.9357C25.919 81.4394 27.0468 82.4225 28.9067 83.015C29.9332 84.0804 30.2085 84.2856 31.504 85.0022C30.6511 85.037 29.7968 85.0022 28.9496 84.8982C27.761 84.7408 25.9366 84.2106 25.1964 83.242C23.8955 81.5021 23.7382 81.5111 22.9794 79.5203Z"/><path fill="#43691C" d="M30.3324 82.9177C32.8902 83.2301 35.4429 83.4928 38.0245 83.528C38.4664 83.534 39.5392 83.4347 39.8981 83.49C39.1528 83.9023 36.3648 84.2416 34.9047 84.6979C33.869 84.8069 32.5206 84.9879 31.504 85.0022C30.2085 84.2856 29.9332 84.0804 28.9067 83.015L30.3324 82.9177Z"/><path fill="#89A724" d="M24.775 79.9357C25.9245 79.713 30.2241 81.1965 30.3324 82.9177L28.9067 83.015C27.0468 82.4225 25.919 81.4394 24.775 79.9357Z"/><path fill="#6E9318" d="M28.6737 69.949C29.9999 70.1582 31.1048 70.0158 31.9031 70.9528C32.055 71.9192 30.8935 73.2856 30.2944 74.1175C28.9692 74.4078 28.0096 72.7534 27.7007 71.6471C27.9025 70.6077 27.9115 70.8473 28.6737 69.949Z"/><path fill="#6E9318" d="M32.7544 78.1512C33.5745 78.2825 35.0457 78.6586 35.6914 79.1783L35.6917 79.791C34.7752 79.9405 34.2335 80.1013 33.3833 79.7417C32.7248 78.9597 32.8995 79.2342 32.7544 78.1512Z"/><path fill="#6E9318" d="M35.7691 71.7085C36.5357 71.6587 36.7837 71.6826 37.5435 71.7947L37.8231 72.2384L37.5416 73.2253C36.7485 73.319 36.578 73.3355 35.848 73.0169C35.4956 72.3261 35.5721 72.5693 35.7691 71.7085Z"/><path fill="#4E6F26" d="M16.7612 41.2766C17.131 41.2949 19.2221 41.4959 19.4114 41.4316L20.4291 41.5763C21.5944 42.1112 22.1072 42.3691 23.3918 42.6287C23.6173 43.9068 21.2245 46.5843 20.8839 47.7349L18.5284 51.6372C17.3063 53.5411 16.349 55.012 15.3433 57.0556C14.3426 58.4369 14.0859 59.2681 14.051 60.9685C14.0757 61.6467 14.049 61.9947 14.3848 62.5994C14.6131 63.2453 15.3033 64.8508 15.7723 65.3622C17.0938 67.7629 19.085 70.9692 20.6286 73.259C21.2482 74.3448 22.5865 76.1916 22.1445 77.4256L21.5409 77.7346C18.6749 72.9037 15.1317 70.1305 11.8477 64.7835C11.9423 63.5133 12.0294 60.2867 12.6446 58.8218C14.4818 54.4471 19.7402 48.2001 20.3146 43.6587C20.3895 43.0663 17.7316 41.8795 16.7612 41.2766Z"/><path fill="#4E6F26" d="M42.1899 47.4114C43.1633 49.1976 45.8944 53.9543 45.6167 55.7095C44.1392 57.7059 39.8752 54.8436 38.0432 54.0583C37.1431 54.788 36.422 55.5857 35.2532 55.7274C35.8087 53.9382 36.1371 53.1624 37.4454 51.8665C37.5324 51.0722 38.1455 49.3666 38.7045 48.7479C39.6468 48.2773 39.384 48.417 40.5908 48.5764L41.072 48.1003L41.2862 48.377C41.7256 48.5101 41.5618 48.494 42.0226 48.3536L42.1899 47.4114Z"/><path fill="#6E9318" d="M41.072 48.1003L41.2862 48.377L41.302 48.4428C41.7757 50.3694 43.3971 52.5405 43.5013 54.179L43.2178 54.6225C41.8849 54.8609 38.7551 52.7843 37.6452 52.0085C37.5782 51.9617 37.5116 51.9143 37.4454 51.8665C37.5324 51.0722 38.1455 49.3666 38.7045 48.7479C39.6468 48.2773 39.384 48.417 40.5908 48.5764L41.072 48.1003Z"/><path fill="#89A724" d="M18.501 38.5877C20.8087 38.4113 23.1937 37.848 25.445 37.6431C28.0082 37.4098 30.4146 37.2818 32.9976 37.0003L33.7 38.0972C32.3529 38.5701 31.7961 38.4272 31.0288 38.6541C29.9259 38.8152 28.8345 38.9638 27.7428 39.1922C27.552 39.9133 27.2197 41.0275 27.0934 41.7274C26.5155 42.2714 25.9317 42.809 25.342 43.3401C25.1214 43.0215 24.4143 42.2359 24.1318 41.9043C23.8597 42.1084 23.4929 42.3257 23.3918 42.6287C22.1072 42.3691 21.5944 42.1112 20.4291 41.5763L19.4114 41.4316C19.2221 41.4959 17.131 41.2949 16.7612 41.2766C16.0925 40.6373 15.8101 40.3698 16.2164 39.4773C16.9366 38.8648 17.591 38.7857 18.501 38.5877Z"/><path fill="#405A20" d="M18.501 38.5877C20.8087 38.4113 23.1937 37.848 25.445 37.6431C28.0082 37.4098 30.4146 37.2818 32.9976 37.0003L33.7 38.0972C32.3529 38.5701 31.7961 38.4272 31.0288 38.6541C29.9259 38.8152 28.8345 38.9638 27.7428 39.1922C27.0576 39.2985 23.4008 39.7852 23.0297 40.0028C21.6092 40.0059 20.189 39.9653 18.7711 39.8813L18.501 38.5877Z"/><path fill="#577D1C" d="M16.7612 41.2766C16.0925 40.6373 15.8101 40.3698 16.2164 39.4773C16.9366 38.8648 17.591 38.7857 18.501 38.5877L18.7711 39.8813L18.0845 40.4585L18.18 40.8132C18.4315 40.9278 19.2573 41.2746 19.4114 41.4316C19.2221 41.4959 17.131 41.2949 16.7612 41.2766Z"/><path fill="#9FB63D" d="M20.4291 41.5763C20.8117 40.1961 20.8205 40.2547 22.1263 40.2066C23.1463 40.5895 23.4612 41.0744 24.1318 41.9043C23.8597 42.1084 23.4929 42.3257 23.3918 42.6287C22.1072 42.3691 21.5944 42.1112 20.4291 41.5763Z"/><path fill="#2B3D1B" d="M32.9976 37.0003C34.469 37.0621 35.8283 37.124 37.2939 37.2689C39.4405 40.4051 40.1241 43.7368 42.1899 47.4114L42.0226 48.3536C41.5618 48.494 41.7256 48.5101 41.2862 48.377L41.072 48.1003C40.1343 45.7397 37.6588 40.1502 35.8924 38.4377C35.3026 37.8658 34.4892 38.0105 33.7 38.0972L32.9976 37.0003Z"/><path fill="#9FB63D" d="M23.4833 66.963L24.506 66.9671C25.9533 68.2658 25.9802 67.4784 27.6338 67.5944C26.9435 69.1249 25.9766 71.1905 24.9537 72.5455C23.4766 70.9819 23.4562 68.9856 23.4833 66.963Z"/><path fill="#6E9318" d="M15.7723 65.3622C17.2793 66.6922 20.8244 67.4509 20.973 69.6312C21.0833 71.2495 20.0442 70.8148 20.6286 73.259C19.085 70.9692 17.0938 67.7629 15.7723 65.3622Z"/><path fill="#C8D191" d="M14.051 60.9685C16.284 60.9863 15.5476 61.7569 16.9582 61.5217C17.7197 60.7135 18.2828 59.4926 18.999 59.2647L19.5418 59.414C20.4228 62.3468 17.1797 63.8963 14.3848 62.5994C14.049 61.9947 14.0757 61.6467 14.051 60.9685Z"/><path fill="#B1C366" d="M23.3918 42.6287C23.4929 42.3257 23.8597 42.1084 24.1318 41.9043C24.4143 42.2359 25.1214 43.0215 25.342 43.3401C23.8688 45.0532 23.0368 46.4793 21.9447 48.4538C21.7527 48.0724 21.2825 47.9204 20.8839 47.7349C21.2245 46.5843 23.6173 43.9068 23.3918 42.6287Z"/><path fill="#B1C366" d="M23.4833 66.963C23.4106 65.5107 23.8639 63.3458 25.4077 62.7915L25.8849 62.9922C26.4097 64.3829 25.2287 65.8037 24.506 66.9671L23.4833 66.963Z"/><path fill="#4E6F26" d="M32.4647 59.7813C33.3064 60.026 33.1423 59.8408 33.5253 60.4807C33.5327 61.6828 32.379 62.8287 31.5844 63.7283C31.1973 64.1956 30.8242 64.6745 30.4658 65.1642L30.09 63.9734C30.7266 62.9856 32.4075 60.7555 32.4647 59.7813Z"/><path fill="#B1C366" d="M15.3433 57.0556C16.349 55.012 17.3063 53.5411 18.5284 51.6372L19.4654 52.3997C18.6201 53.5948 17.7894 54.7974 16.9799 56.0171C16.3796 56.9217 16.3115 56.8806 15.3433 57.0556Z"/><path fill="#C8D191" d="M20.8839 47.7349C21.2825 47.9204 21.7527 48.0724 21.9447 48.4538C21.0639 50.1027 20.5701 50.8924 19.4654 52.3997L18.5284 51.6372L20.8839 47.7349Z"/><path fill="#9FB63D" d="M27.7428 39.1922C28.8345 38.9638 29.9259 38.8152 31.0288 38.6541C30.2742 40.1243 28.9515 41.2223 27.3676 41.6934C27.2894 41.7163 27.1759 41.7253 27.0934 41.7274C27.2197 41.0275 27.552 39.9133 27.7428 39.1922Z"/><path fill="#9FB63D" d="M28.992 48.5075C29.183 48.8981 29.5992 49.1263 30.0312 49.0772C30.0867 50.9616 30.2606 51.5369 28.7415 52.8925C28.0896 53.4743 27.6141 54.2691 26.7389 54.6061C26.435 53.6736 28.4966 49.7217 28.992 48.5075Z"/><path fill="#B1C366" d="M28.992 48.5075C28.7954 48.1053 28.8819 47.6221 29.2058 47.313C29.5297 47.0039 30.0164 46.9402 30.409 47.1554C30.8016 47.3706 31.0096 47.8152 30.9232 48.2545C30.8369 48.6938 30.476 49.0266 30.0312 49.0772C29.5992 49.1263 29.183 48.8981 28.992 48.5075Z"/><defs><linearGradient id="gradient_2" gradientUnits="userSpaceOnUse" x1="73.68795" y1="86.151077" x2="86.59919" y2="59.813084"><stop offset="0" stop-color="#729112"/><stop offset="1" stop-color="#94B629"/></linearGradient></defs><path fill="url(#gradient_2)" d="M70.6374 60.7615C71.162 60.2304 71.5873 59.6635 72.3123 59.5787C73.4638 60.2604 73.1751 61.6247 73.1562 62.8506C73.3292 64.2212 73.4174 64.7286 73.2195 66.1171C76.6028 66.655 80.929 65.7939 83.411 66.7816C84.4971 67.2289 85.412 67.618 86.5472 67.9455L87.7921 67.5429C88.1834 67.3223 88.2652 67.177 88.6096 67.2388L89.7665 67.8858C94.7263 67.0948 96.1441 67.5226 101.362 66.2452L101.809 66.5726L102.166 67.5325C103.267 69.5791 96.4238 77.0422 95.6758 80.3825C95.0596 83.7621 93.2028 83.897 90.1845 84.6655L89.5679 84.7293C88.7367 84.9317 87.5509 85.2584 86.7313 85.3484C84.5367 85.5429 75.4755 86.2624 73.3413 85.9922L73.1129 86.5414L72.8671 87.4346C72.8221 88.7143 72.957 90.457 72.102 91.3437C71.4099 91.6979 71.2472 91.6703 70.4914 91.5275L70.5082 91.3103C68.91 89.8793 66.1783 85.9653 64.8985 84.1093C63.9345 83.106 62.4837 81.1226 61.645 79.9965C60.4436 78.8301 59.8795 77.4735 58.1924 76.0377C58.8893 74.4919 59.5135 73.6392 60.6608 72.4378C60.8534 71.8923 69.5598 61.9875 70.6374 60.7615Z"/><path fill="#4E6F26" d="M70.6374 60.7615C71.162 60.2304 71.5873 59.6635 72.3123 59.5787C73.4638 60.2604 73.1751 61.6247 73.1562 62.8506L72.8794 62.0171C72.1116 62.9905 73.121 65.9142 73.0519 67.0389C72.5304 67.3641 71.8417 67.4623 71.2604 67.3361C71.1974 67.3228 71.1353 67.3054 71.0746 67.284C69.5053 67.6162 66.8272 69.3194 65.7341 69.0696C63.6146 71.1149 62.2528 73.3825 59.9268 75.4633C60.6763 76.2515 61.5517 77.0915 62.0738 78.035C61.6574 78.8449 61.6651 79.0808 61.645 79.9965C60.4436 78.8301 59.8795 77.4735 58.1924 76.0377C58.8893 74.4919 59.5135 73.6392 60.6608 72.4378C60.8534 71.8923 69.5598 61.9875 70.6374 60.7615Z"/><path fill="#B1C366" d="M70.8206 62.9531C70.9616 64.2577 71.0044 65.9451 71.0746 67.284C69.5053 67.6162 66.8272 69.3194 65.7341 69.0696L65.8196 68.7356C68.3857 66.4402 68.9153 65.8404 70.8206 62.9531Z"/><path fill="#577D1C" d="M66.3069 83.7094L66.4269 83.7286C66.6637 84.1312 66.9848 84.7339 67.2977 85.0554C68.6717 85.0355 68.8302 85.2091 69.5367 84.0809C69.7728 84.1776 70.6331 84.5102 70.7897 84.6304L70.9162 84.5493C73.2699 85.3078 71.6027 86.1625 72.8671 87.4346C72.8221 88.7143 72.957 90.457 72.102 91.3437C71.4099 91.6979 71.2472 91.6703 70.4914 91.5275L70.5082 91.3103C68.91 89.8793 66.1783 85.9653 64.8985 84.1093L66.3069 83.7094Z"/><path fill="#43691C" d="M70.9162 84.5493C73.2699 85.3078 71.6027 86.1625 72.8671 87.4346C72.8221 88.7143 72.957 90.457 72.102 91.3437C71.4099 91.6979 71.2472 91.6703 70.4914 91.5275L70.5082 91.3103C70.6279 90.6286 70.6711 90.3576 70.6665 89.6529C70.9759 87.4801 70.9284 86.811 70.7897 84.6304L70.9162 84.5493Z"/><path fill="#9FB63D" d="M69.5367 84.0809C69.7728 84.1776 70.6331 84.5102 70.7897 84.6304C70.9284 86.811 70.9759 87.4801 70.6665 89.6529C69.002 89.0191 69.271 87.0517 68.5745 85.6905C68.3054 85.1645 67.9966 85.2356 67.2977 85.0554C68.6717 85.0355 68.8302 85.2091 69.5367 84.0809Z"/><path fill="#4E6F26" d="M82.9797 83.0512L83.1152 83.4005C84.882 84.777 87.2935 84.6159 89.5679 84.7293C88.7367 84.9317 87.5509 85.2584 86.7313 85.3484C84.5367 85.5429 75.4755 86.2624 73.3413 85.9922L73.1129 86.5414L72.8671 87.4346C71.6027 86.1625 73.2699 85.3078 70.9162 84.5493C71.1645 84.2554 71.3712 83.9802 71.8211 83.9537C75.0206 83.7655 76.4952 84.2105 79.6645 83.2423C80.6869 83.2472 81.9426 83.1242 82.9797 83.0512Z"/><path fill="#577D1C" d="M102.166 67.5325C103.267 69.5791 96.4238 77.0422 95.6758 80.3825C95.4343 79.3374 95.3704 79.1316 94.6502 78.3424C94.7971 78.091 94.893 77.4538 94.9555 77.1382L95.0785 76.5936C96.3724 75.8072 101.666 68.6911 102.166 67.5325Z"/><path fill="#4E6F26" d="M94.6502 78.3424C95.3704 79.1316 95.4343 79.3374 95.6758 80.3825C95.0596 83.7621 93.2028 83.897 90.1845 84.6655C91.0862 83.6199 91.1194 83.7523 90.9491 82.422C92.4829 81.572 93.0278 80.7526 94.014 79.377L94.6502 78.3424Z"/><path fill="#43691C" d="M61.645 79.9965C61.6651 79.0808 61.6574 78.8449 62.0738 78.035C63.1956 79.2616 66.0958 82.2152 66.3069 83.7094L64.8985 84.1093C63.9345 83.106 62.4837 81.1226 61.645 79.9965Z"/><path fill="#577D1C" d="M90.1642 82.4338L90.9491 82.422C91.1194 83.7523 91.0862 83.6199 90.1845 84.6655L89.5679 84.7293C87.2935 84.6159 84.882 84.777 83.1152 83.4005C85.4005 83.4967 88.286 83.8237 90.1642 82.4338Z"/><path fill="#C8D191" d="M92.9113 77.7807C93.8639 78.6156 93.6657 78.2531 94.014 79.377C93.0278 80.7526 92.4829 81.572 90.9491 82.422L90.1642 82.4338C89.8413 81.3438 90.9882 80.1884 91.634 79.3704C91.9334 79.063 92.6107 78.1592 92.9113 77.7807Z"/><path fill="#9FB63D" d="M90.9911 76.633C91.8483 76.9785 92.4888 77.0749 92.9113 77.7807C92.6107 78.1592 91.9334 79.063 91.634 79.3704C90.761 78.2289 89.8548 78.5405 88.5742 78.6696C88.2055 77.7687 88.3883 78.0387 87.4813 77.5032C88.1374 77.5838 90.1155 76.8677 90.9911 76.633Z"/><path fill="#C8D191" d="M90.9911 76.633C91.5586 76.03 91.9093 75.5509 92.7125 75.3536C93.8587 75.6222 93.8839 76.57 94.9555 77.1382C94.893 77.4538 94.7971 78.091 94.6502 78.3424L94.014 79.377C93.6657 78.2531 93.8639 78.6156 92.9113 77.7807C92.4888 77.0749 91.8483 76.9785 90.9911 76.633Z"/><path fill="#B1C366" d="M87.7921 67.5429C88.1834 67.3223 88.2652 67.177 88.6096 67.2388L89.7665 67.8858C90.7558 67.9962 90.7087 67.8383 91.38 68.3733L91.3656 68.8877C90.5544 69.909 89.2517 70.1063 88.2115 69.2965C87.7155 68.6335 87.7615 68.3682 87.7921 67.5429Z"/><path fill="#DDDCC3" d="M83.411 66.7816C84.4971 67.2289 85.412 67.618 86.5472 67.9455L86.8075 68.23C86.5416 69.1242 86.7133 68.8358 86 69.4505L85.4032 69.4089L83.7229 69.0831C83.0608 68.4895 83.2352 68.5482 83.0006 67.5544L83.411 66.7816Z"/><path fill="#C8D191" d="M85.4032 69.4089C83.6211 69.5006 82.3235 69.7173 80.7605 68.7701L80.7601 68.3217C81.2967 67.7204 82.1948 67.6801 83.0006 67.5544C83.2352 68.5482 83.0608 68.4895 83.7229 69.0831L85.4032 69.4089Z"/><path fill="#B1C366" d="M87.4813 77.5032C88.3883 78.0387 88.2055 77.7687 88.5742 78.6696C87.4183 79.3198 86.7437 79.9856 85.4417 79.487L85.4126 79.0072C85.8583 78.1794 86.6401 77.9055 87.4813 77.5032Z"/><path fill="#B1C366" d="M79.6645 83.2423C80.0791 82.0211 81.1087 81.2896 82.4175 81.6326C83.07 82.3008 82.9067 82.0389 82.9797 83.0512C81.9426 83.1242 80.6869 83.2472 79.6645 83.2423Z"/><path fill="#B1C366" d="M66.4269 83.7286C67.5233 82.9261 68.4143 83.3936 69.5367 84.0809C68.8302 85.2091 68.6717 85.0355 67.2977 85.0554C66.9848 84.7339 66.6637 84.1312 66.4269 83.7286Z"/><path fill="#89A724" d="M70.393 73.5648C71.3574 72.7949 74.6701 72.9162 75.8272 73.2056L75.9604 73.4613C74.7234 74.1418 73.3422 74.3738 71.9545 74.526C71.1808 74.9629 70.0334 75.7695 69.1987 75.3296C69.2291 74.5744 69.8476 74.1072 70.393 73.5648Z"/><path fill="#9FB63D" d="M70.393 73.5648L71.7239 73.6096C71.8878 74.0133 71.9258 74.0929 71.9545 74.526C71.1808 74.9629 70.0334 75.7695 69.1987 75.3296C69.2291 74.5744 69.8476 74.1072 70.393 73.5648Z"/><path fill="#9FB63D" d="M80.543 75.2161L81.5236 75.238L81.8022 75.5332C81.5234 76.4908 79.8332 77.032 78.9763 77.2767C78.089 77.1828 77.8575 77.3335 77.4168 76.8037C77.8774 76.2345 79.7672 75.5472 80.543 75.2161Z"/><path fill="#6E9318" d="M81.7027 43.8574C86.0883 41.9474 88.6108 39.8864 93.0502 38.8564C96.8719 43.8837 99.7569 50.9391 103.637 56.7743C104.966 59.1272 105.188 60.5521 106 62.0796L106 62.3923C104.37 65.3168 102.318 65.4286 101.809 66.5726L101.362 66.2452C96.1441 67.5226 94.7263 67.0948 89.7665 67.8858L88.6096 67.2388C88.2652 67.177 88.1834 67.3223 87.7921 67.5429C87.7621 66.7087 85.74 63.8484 85.1979 63.0099C83.9821 61.3237 82.4845 58.3119 81.2332 56.43C79.2106 53.3883 77.2397 50.8629 75.6593 47.5639C76.0634 46.9109 76.4773 46.1361 76.8599 45.4594C78.304 44.7842 80.1256 44.005 81.7027 43.8574Z"/><path fill="#2B3D1B" d="M81.7027 43.8574C86.0883 41.9474 88.6108 39.8864 93.0502 38.8564C96.8719 43.8837 99.7569 50.9391 103.637 56.7743C103.108 57.1177 102.473 57.5552 101.939 57.8648C101.984 56.711 93.5492 41.1788 92.1421 40.5037C91.4456 40.5791 91.2046 40.8669 90.6914 41.3272C89.3271 42.0663 85.7866 43.8517 84.2511 43.7967L83.8708 44.1512C82.9588 43.26 82.596 44.3499 81.7027 43.8574Z"/><path fill="#405A20" d="M81.7027 43.8574C82.596 44.3499 82.9588 43.26 83.8708 44.1512L83.7695 44.4403C81.8123 45.412 79.3068 46.6101 77.4591 47.701C79.8352 51.813 82.3821 55.8374 84.2408 60.2039C84.5983 61.0436 85.3379 61.7719 85.4991 62.6901L85.1979 63.0099C83.9821 61.3237 82.4845 58.3119 81.2332 56.43C79.2106 53.3883 77.2397 50.8629 75.6593 47.5639C76.0634 46.9109 76.4773 46.1361 76.8599 45.4594C78.304 44.7842 80.1256 44.005 81.7027 43.8574Z"/><path fill="#43691C" d="M101.939 57.8648C102.473 57.5552 103.108 57.1177 103.637 56.7743C104.966 59.1272 105.188 60.5521 106 62.0796L106 62.3923C104.37 65.3168 102.318 65.4286 101.809 66.5726L101.362 66.2452C96.1441 67.5226 94.7263 67.0948 89.7665 67.8858L88.6096 67.2388C90.6262 66.4377 101.363 67.9844 103.549 64.3293L103.395 63.9798C102.984 64.0574 102.908 64.064 102.492 64.0246C103.055 63.6544 103.178 63.5695 103.596 63.0111C103.463 62.1989 102.308 59.3646 101.939 57.8648Z"/><path fill="#C8D191" d="M90.6914 41.3272C90.5177 43.2277 87.2408 45.2112 85.6386 47.1142C84.9658 45.8895 84.7524 45.4678 83.7695 44.4403L83.8708 44.1512L84.2511 43.7967C85.7866 43.8517 89.3271 42.0663 90.6914 41.3272Z"/></svg>